<svg fill="none" xmlns="http://www.w3.org/2000/svg" viewBox="0 0 36 36"><g fill="#1CA677"><path opacity=".15" fill-rule="evenodd" clip-rule="evenodd" d="M18 36c9.941 0 18-8.059 18-18S27.941 0 18 0 0 8.059 0 18s8.059 18 18 18z"/><path d="M15.598 23.736l-4.893-4.863a.714.714 0 01-.205-.527c0-.215.068-.39.205-.528l1.084-1.054a.653.653 0 01.513-.235c.205 0 .386.078.542.235l3.281 3.28 7.031-7.03a.744.744 0 01.542-.235c.205 0 .376.078.513.235l1.084 1.054a.714.714 0 01.205.528c0 .214-.068.39-.205.527l-8.643 8.613a.669.669 0 01-.527.235.669.669 0 01-.527-.235z"/></g></svg>