<svg fill="none" xmlns="http://www.w3.org/2000/svg" viewBox="0 0 1442 482"><path opacity=".2" d="M1441.5 24.956c-4.51 93.655-60.23 267.05-247.01 211.388C960.998 166.768 909.391 13.434 651.353 39.58 444.922 60.497 131.272 339.04 1 468" stroke="#AAAEB3"/><path opacity=".2" d="M1441.5 1c-4.51 98.901-60.23 282.009-247.01 223.23C960.998 150.756 909.391-11.168 651.353 16.444 444.922 38.533 132.772 316.424 2.5 452.608" stroke="#AAAEB3"/><path opacity=".2" d="M1441.5 53.347c-4.51 93.656-60.23 267.051-247.01 211.389C960.998 195.16 909.391 41.826 651.353 67.972 444.922 88.889 132.772 352.04 2.5 481" stroke="#AAAEB3"/></svg>